<?xml version="1.0" standalone="no"?>
<!DOCTYPE svg PUBLIC "-//W3C//DTD SVG 20010904//EN"
 "http://www.w3.org/TR/2001/REC-SVG-20010904/DTD/svg10.dtd">
<svg version="1.0" xmlns="http://www.w3.org/2000/svg"
 width="91.000000pt" height="86.000000pt" viewBox="0 0 91.000000 86.000000"
 preserveAspectRatio="xMidYMid meet">
<metadata>
Created by potrace 1.16, written by Peter Selinger 2001-2019
</metadata>
<g transform="translate(0.000000,86.000000) scale(0.100000,-0.100000)"
fill="#000000" stroke="none">
<path d="M300 645 l0 -115 295 0 295 0 0 93 c0 50 -4 97 -8 103 -20 30 -55 34
-316 34 l-266 0 0 -115z"/>
<path d="M62 738 c-8 -8 -12 -46 -12 -105 l0 -93 90 0 90 0 0 105 0 105 -78 0
c-47 0 -83 -5 -90 -12z"/>
<path d="M72 304 c4 -217 2 -214 105 -214 l63 0 0 177 0 176 -35 -36 c-37 -38
-43 -41 -69 -31 -23 9 -20 17 12 36 15 9 35 30 45 47 l18 31 -71 0 -71 0 3
-186z"/>
<path d="M330 478 c0 -6 18 -28 41 -50 62 -59 29 -84 -36 -27 l-35 31 0 -171
0 -171 253 0 c234 0 255 1 274 19 17 16 21 36 26 156 4 76 7 158 7 182 l0 43
-265 0 c-194 0 -265 -3 -265 -12z"/>
</g>
</svg>
